<svg width="36" height="36" viewBox="0 0 36 36" fill="none" xmlns="http://www.w3.org/2000/svg">
<path d="M13.5 5.0625H29.25V6.1875H13.5V5.0625Z" fill="#3A4661"/>
<path d="M13.5 7.3125H29.25V8.4375H13.5V7.3125Z" fill="#3A4661"/>
<path d="M13.5 9.5625H29.25V10.6875H13.5V9.5625Z" fill="#3A4661"/>
<path d="M13.5 11.8125H29.25V12.9375H13.5V11.8125Z" fill="#3A4661"/>
<path d="M33.1875 18.5625H31.5V3.375C31.5 3.0645 31.248 2.8125 30.9375 2.8125H29.25V1.125C29.25 0.8145 28.998 0.5625 28.6875 0.5625H5.0625C4.752 0.5625 4.5 0.8145 4.5 1.125V18.5625H2.8125C1.57162 18.5625 0.5625 19.5716 0.5625 20.8125V35.4375H1.6875V20.8125C1.6875 20.1921 2.19206 19.6875 2.8125 19.6875H33.1875C33.8079 19.6875 34.3125 20.1921 34.3125 20.8125V35.4375H35.4375V20.8125C35.4375 19.5716 34.4284 18.5625 33.1875 18.5625ZM30.375 18.5625H7.875V8.4375H11.8125C12.123 8.4375 12.375 8.1855 12.375 7.875V3.9375H30.375V18.5625ZM8.67037 7.3125L11.25 4.73287V7.3125H8.67037ZM5.625 1.6875H28.125V2.8125H11.8125C11.6573 2.8125 11.5166 2.8755 11.4148 2.97731L6.91537 7.47675C6.813 7.57912 6.75 7.71975 6.75 7.875V18.5625H5.625V1.6875Z" fill="#3A4661"/>
<path d="M28.125 16.3125H29.25V17.4375H28.125V16.3125Z" fill="#3A4661"/>
<path d="M25.875 16.3125H27V17.4375H25.875V16.3125Z" fill="#3A4661"/>
<path d="M23.625 16.3125H24.75V17.4375H23.625V16.3125Z" fill="#3A4661"/>
<path d="M21.375 16.3125H22.5V17.4375H21.375V16.3125Z" fill="#3A4661"/>
<path d="M21.375 14.0625H29.25V15.1875H21.375V14.0625Z" fill="#3A4661"/>
<path d="M2.8125 21.9375H18.5625V23.0625H2.8125V21.9375Z" fill="#3A4661"/>
<path d="M2.8125 24.1875H10.6875V25.3125H2.8125V24.1875Z" fill="#3A4661"/>
<path d="M25.3125 20.8125C21.2805 20.8125 18 24.093 18 28.125C18 32.157 21.2805 35.4375 25.3125 35.4375C29.3445 35.4375 32.625 32.157 32.625 28.125C32.625 24.093 29.3445 20.8125 25.3125 20.8125ZM25.3125 34.3125C21.9009 34.3125 19.125 31.5366 19.125 28.125C19.125 24.7134 21.9009 21.9375 25.3125 21.9375C28.7241 21.9375 31.5 24.7134 31.5 28.125C31.5 31.5366 28.7241 34.3125 25.3125 34.3125Z" fill="#3A4661"/>
<path d="M28.6875 27.5625H28.125V25.875C28.125 24.3242 26.8633 23.0625 25.3125 23.0625C23.7617 23.0625 22.5 24.3242 22.5 25.875V27.5625H21.9375C21.627 27.5625 21.375 27.8145 21.375 28.125V31.5C21.375 31.8105 21.627 32.0625 21.9375 32.0625H28.6875C28.998 32.0625 29.25 31.8105 29.25 31.5V28.125C29.25 27.8145 28.998 27.5625 28.6875 27.5625ZM23.625 25.875C23.625 24.9446 24.3821 24.1875 25.3125 24.1875C26.2429 24.1875 27 24.9446 27 25.875V27.5625H23.625V25.875ZM28.125 30.9375H22.5V28.6875H28.125V30.9375Z" fill="#3A4661"/>
</svg>
