<svg width="37" height="37" viewBox="0 0 37 37" fill="none" xmlns="http://www.w3.org/2000/svg">
<path d="M23.1701 23.0963L22.6062 20.2674C22.4874 19.6354 22.1609 19.0636 21.6564 18.6724C21.3595 18.4015 21.033 18.2511 20.7362 18.1909L18.3617 17.4987C18.3023 17.4686 18.2726 17.4686 18.2133 17.4385C18.0946 17.3482 18.0055 17.2279 17.9758 17.0774L17.8571 16.1144C18.5398 15.6028 19.0147 14.7902 19.2521 13.8874C19.6677 13.8573 19.9942 13.3758 19.9942 12.7739C19.9942 12.2021 19.7271 11.7507 19.3412 11.6604" stroke="#344154" stroke-miterlimit="10" stroke-linecap="round"/>
<path d="M12.6331 11.5999C12.277 11.7202 12.0098 12.1416 12.0098 12.7134C12.0098 13.3153 12.3363 13.7968 12.7519 13.8269C12.9893 14.7298 13.4939 15.5424 14.1469 16.054L14.0282 17.017C13.9985 17.1675 13.9391 17.318 13.7907 17.3782C13.7314 17.4083 13.7017 17.4384 13.6423 17.4384L11.2678 18.1306C10.971 18.1908 10.6445 18.3713 10.3477 18.6121C9.87277 19.0335 9.5166 19.5751 9.39788 20.2072L8.83392 23.0361" stroke="#344154" stroke-miterlimit="10" stroke-linecap="round"/>
<path d="M19.3709 11.6002C19.3709 11.6002 19.5787 7.59753 16.0169 7.59753C12.4551 7.59753 12.6332 11.6002 12.6332 11.6002" stroke="#344154" stroke-miterlimit="10" stroke-linecap="round"/>
<path d="M12.9003 9.8847C13.0487 9.58374 13.3159 9.37307 13.6127 9.25269C14.0876 9.07211 14.6218 9.22258 15.0967 9.43326C15.7794 9.73422 16.3434 10.1255 17.1151 10.1857C17.8274 10.2759 18.4804 10.1857 19.1334 9.85461" stroke="#344154" stroke-miterlimit="10" stroke-linecap="round"/>
<path d="M13.8204 17.4083L16.0169 19.6956" stroke="#344154" stroke-miterlimit="10" stroke-linecap="round"/>
<path d="M18.2133 17.4083L16.0169 19.6956" stroke="#344154" stroke-miterlimit="10" stroke-linecap="round"/>
<path d="M16.0169 19.6957V21.2305" stroke="#344154" stroke-miterlimit="10" stroke-linecap="round"/>
<path d="M19.0347 29.4416C26.2218 27.7558 30.7003 20.4817 29.0375 13.1945C27.3748 5.90738 20.2006 1.36662 13.0135 3.05248C5.82633 4.73833 1.3479 12.0124 3.01061 19.2995C4.67332 26.5867 11.8475 31.1275 19.0347 29.4416Z" stroke="#344154" stroke-miterlimit="10" stroke-linecap="round"/>
<path d="M16.3731 32.0946C24.8027 32.0946 31.6591 25.1427 31.6591 16.5958" stroke="#344154" stroke-miterlimit="10" stroke-linecap="round"/>
<path d="M28.3644 26.1958L35.488 33.4188C36.1707 34.111 36.1707 35.2546 35.488 35.9468C34.8053 36.639 33.6774 36.639 32.9947 35.9468L25.8712 28.7238" stroke="#344154" stroke-miterlimit="10" stroke-linecap="round"/>
</svg>
