<svg width="38" height="31" viewBox="0 0 38 31" fill="none" xmlns="http://www.w3.org/2000/svg">
<path d="M12.0703 16.6353C12.0703 16.2677 12.6001 10.5282 12.6001 10.5282L16.4204 8.01184" stroke="#344154" stroke-miterlimit="10" stroke-linejoin="round"/>
<path d="M18.4839 13.5818L17.5637 16.635" stroke="#344154" stroke-miterlimit="10" stroke-linecap="round" stroke-linejoin="round"/>
<path d="M25.9571 16.6353C25.9571 16.2677 25.4273 10.5282 25.4273 10.5282L21.607 8.01184" stroke="#344154" stroke-miterlimit="10" stroke-linejoin="round"/>
<path d="M21.6349 8.01184L17.5358 11.8289L18.4839 13.5819H19.0137H19.5435L20.4916 11.8289L16.3925 8.01184" stroke="#344154" stroke-miterlimit="10" stroke-linecap="round" stroke-linejoin="round"/>
<path d="M19.5436 13.5818L20.4638 16.635" stroke="#344154" stroke-miterlimit="10" stroke-linecap="round" stroke-linejoin="round"/>
<path d="M21.6349 14.3733H23.6705" stroke="#344154" stroke-miterlimit="10" stroke-linecap="round" stroke-linejoin="round"/>
<path d="M19.0137 7.1073C20.3689 7.1073 21.4676 5.74012 21.4676 4.05363C21.4676 2.36715 20.3689 1 19.0137 1C17.6584 1 16.5598 2.36715 16.5598 4.05363C16.5598 5.74012 17.6584 7.1073 19.0137 7.1073Z" stroke="#344154" stroke-miterlimit="10" stroke-linecap="round" stroke-linejoin="round"/>
<path d="M25.3716 10.613L27.937 9.51038" stroke="#344154" stroke-miterlimit="10" stroke-linejoin="round"/>
<path d="M29.6938 10.7544L27.937 9.51038" stroke="#344154" stroke-miterlimit="10" stroke-linecap="round" stroke-linejoin="round"/>
<path d="M34.6015 16.6635C34.6015 16.409 33.988 10.613 33.988 10.613L31.4226 9.51038" stroke="#344154" stroke-miterlimit="10" stroke-linejoin="round"/>
<path d="M31.4504 9.51038L29.6937 10.7545V14.3735" stroke="#344154" stroke-miterlimit="10" stroke-linecap="round" stroke-linejoin="round"/>
<path d="M29.6938 8.23804C30.7256 8.23804 31.5621 7.20005 31.5621 5.91966C31.5621 4.63927 30.7256 3.60132 29.6938 3.60132C28.6619 3.60132 27.8254 4.63927 27.8254 5.91966C27.8254 7.20005 28.6619 8.23804 29.6938 8.23804Z" stroke="#344154" stroke-miterlimit="10" stroke-linecap="round" stroke-linejoin="round"/>
<path d="M12.656 10.613L10.0905 9.51038" stroke="#344154" stroke-miterlimit="10" stroke-linejoin="round"/>
<path d="M8.33386 10.7543L10.0906 9.51038" stroke="#344154" stroke-miterlimit="10" stroke-linecap="round" stroke-linejoin="round"/>
<path d="M3.42603 16.6635C3.42603 16.409 4.0395 10.613 4.0395 10.613L6.60492 9.51038" stroke="#344154" stroke-miterlimit="10" stroke-linejoin="round"/>
<path d="M6.57703 9.51038L8.33386 10.7544V14.3733" stroke="#344154" stroke-miterlimit="10" stroke-linecap="round" stroke-linejoin="round"/>
<path d="M8.33376 8.23804C9.3656 8.23804 10.2021 7.20005 10.2021 5.91966C10.2021 4.63927 9.3656 3.60132 8.33376 3.60132C7.30193 3.60132 6.46545 4.63927 6.46545 5.91966C6.46545 7.20005 7.30193 8.23804 8.33376 8.23804Z" stroke="#344154" stroke-miterlimit="10" stroke-linecap="round" stroke-linejoin="round"/>
<path d="M33.988 16.6354H4.03947C2.36637 16.6354 1 18.0208 1 19.7171V29.6127H7.21837V28.1708C7.21837 26.2482 8.75205 24.6932 10.6482 24.6932H27.3513C29.2475 24.6932 30.7812 26.2482 30.7812 28.1708V29.6127H36.9996V19.7171C37.0275 18.0208 35.6611 16.6354 33.988 16.6354Z" stroke="#344154" stroke-miterlimit="10"/>
<path d="M10.481 22.2051H27.5466" stroke="#344154" stroke-miterlimit="10" stroke-linecap="round"/>
</svg>
