<svg width="36" height="36" fill="none" xmlns="http://www.w3.org/2000/svg"><path d="M13.5 5.063h15.75v1.125H13.5V5.063zm0 2.25h15.75v1.125H13.5V7.312zm0 2.25h15.75v1.124H13.5V9.563zm0 2.25h15.75v1.124H13.5v-1.124z" fill="#3A4661"/><path d="M33.188 18.563H31.5V3.374a.563.563 0 00-.563-.563H29.25V1.125a.563.563 0 00-.563-.563H5.063a.563.563 0 00-.562.563v17.438H2.812a2.253 2.253 0 00-2.25 2.25v14.625h1.125V20.812c0-.62.505-1.125 1.125-1.125h30.375c.62 0 1.126.505 1.126 1.125v14.625h1.124V20.813a2.252 2.252 0 00-2.25-2.25zm-2.813 0h-22.5V8.438h3.938c.31 0 .562-.253.562-.563V3.937h18v14.626zM8.67 7.313l2.58-2.58v2.58H8.67zM5.625 1.688h22.5v1.125H11.812a.56.56 0 00-.397.164l-4.5 4.5a.561.561 0 00-.165.398v10.688H5.625V1.688z" fill="#3A4661"/><path d="M28.125 16.313h1.125v1.125h-1.125v-1.125zm-2.25 0H27v1.125h-1.125v-1.125zm-2.25 0h1.125v1.125h-1.125v-1.125zm-2.25 0H22.5v1.125h-1.125v-1.125zm0-2.25h7.875v1.124h-7.875v-1.124zM2.813 21.938h15.75v1.125H2.813v-1.125zm0 2.25h7.874v1.125H2.814v-1.125zm22.5-3.375c-4.032 0-7.313 3.28-7.313 7.312s3.28 7.313 7.313 7.313c4.032 0 7.312-3.281 7.312-7.313s-3.28-7.313-7.313-7.313zm0 13.5a6.195 6.195 0 01-6.188-6.188 6.195 6.195 0 016.188-6.188 6.195 6.195 0 016.187 6.188 6.195 6.195 0 01-6.188 6.188z" fill="#3A4661"/><path d="M28.688 27.563h-.563v-1.688a2.816 2.816 0 00-2.813-2.813 2.816 2.816 0 00-2.812 2.813v1.688h-.563a.563.563 0 00-.562.562V31.5c0 .31.252.563.563.563h6.75c.31 0 .562-.253.562-.563v-3.375a.563.563 0 00-.563-.563zm-5.063-1.688c0-.93.757-1.688 1.688-1.688.93 0 1.687.758 1.687 1.688v1.688h-3.375v-1.688zm4.5 5.063H22.5v-2.25h5.625v2.25z" fill="#3A4661"/></svg>