<svg width="130" height="44" viewBox="0 0 130 44" fill="none" xmlns="http://www.w3.org/2000/svg">
<path d="M52.7468 35.5447H62.3551V33.8666H54.6402V20.9744H52.7468V35.5447ZM70.3413 35.5447H76.3888V33.8666H74.2975V22.6523H76.3888V20.9744H70.3413V22.6523H72.4042V33.8666H70.3413V35.5447ZM85.1946 22.6523H86.7205V33.8666H85.1946V35.5447H90.1115C95.3962 35.5447 96.1874 32.6361 96.1874 28.0778C96.1874 22.6803 94.2941 20.9744 90.1115 20.9744H85.1946V22.6523ZM88.6138 22.6523H90.5638C92.9093 22.6523 94.2091 23.799 94.2091 28.2734C94.2091 32.4683 93.107 33.8666 90.6203 33.8666H88.6138V22.6523ZM103.213 35.5447H112.397V33.8666H105.106V28.693H111.125V27.015H105.106V22.6523H112.397V20.9744H103.213V35.5447ZM121.825 27.6302V22.6523H124.876C126.572 22.6523 127.363 23.6312 127.363 24.9454C127.363 26.5956 126.148 27.6302 124.311 27.6302H121.825ZM119.931 35.5447H121.825V29.3081H124.566L128.324 35.9081L129.963 34.9294L126.346 29.0285C128.126 28.4971 129.341 26.7352 129.341 24.9454C129.341 22.121 127.391 20.9744 124.933 20.9744H119.931V35.5447Z" fill="white"/>
<path d="M7.79639 8.09919L8.39202 1.01929L43.7068 35.9677H35.9571L7.79639 8.09919Z" fill="#FFE66D"/>
<path fill-rule="evenodd" clip-rule="evenodd" d="M31.0036 0.718262H7.71387V7.94859L13.1938 13.3716V6.14132H31.0036C34.6186 6.14132 37.5489 9.04139 37.5489 12.6188C37.5489 16.1963 34.6186 19.0964 31.0036 19.0964H18.9785L24.4584 24.5195H31.0036C37.6449 24.5195 43.0288 19.1914 43.0288 12.6188C43.0288 6.04634 37.6449 0.718262 31.0036 0.718262Z" fill="#FFE66D"/>
<path d="M0.794373 14.2556L0.794397 6.58618L38.0883 43.4931H30.3385L0.794373 14.2556Z" fill="white"/>
<path d="M7.7124 33.7577L7.71275 26.0889L17.6963 35.9686L7.7138 35.9677L7.7124 33.7577Z" fill="#FFE66D"/>
</svg>
