<svg width="156" height="52" viewBox="0 0 156 52" fill="none" xmlns="http://www.w3.org/2000/svg">
<path d="M62.7441 42.3373H74.3481V40.2975H65.0308V24.6248H62.7441V42.3373Z" fill="white"/>
<path d="M83.9933 42.3373H91.2969V40.2975H88.7714V26.6646H91.2969V24.6248H83.9933V26.6646H86.4847V40.2975H83.9933V42.3373Z" fill="white"/>
<path d="M101.932 26.6646H103.775V40.2975H101.932V42.3373H107.87C114.253 42.3373 115.208 38.8016 115.208 33.2601C115.208 26.6986 112.921 24.6248 107.87 24.6248H101.932V26.6646ZM106.062 26.6646H108.416C111.249 26.6646 112.819 28.0585 112.819 33.498C112.819 38.5976 111.488 40.2975 108.485 40.2975H106.062V26.6646Z" fill="white"/>
<path d="M123.693 42.3373H134.785V40.2975H125.98V34.008H133.249V31.9682H125.98V26.6646H134.785V24.6248H123.693V42.3373Z" fill="white"/>
<path d="M146.171 32.7161V26.6646H149.857C151.904 26.6646 152.86 27.8545 152.86 29.4524C152.86 31.4582 151.392 32.7161 149.174 32.7161H146.171ZM143.884 42.3373H146.171V34.7559H149.481L154.02 42.7793L156 41.5894L151.631 34.416C153.782 33.77 155.249 31.6282 155.249 29.4524C155.249 26.0186 152.894 24.6248 149.925 24.6248H143.884V42.3373Z" fill="white"/>
<path d="M8.45654 8.9728L9.1759 0.365967L51.8264 42.8517H42.4668L8.45654 8.9728Z" fill="#FFE66D"/>
<path fill-rule="evenodd" clip-rule="evenodd" d="M36.4842 0H8.35681V8.78973L14.975 15.3824V6.59265H36.4842C40.8501 6.59265 44.3893 10.1182 44.3893 14.4672C44.3893 18.8162 40.8501 22.3417 36.4842 22.3417H21.9614L28.5796 28.9344H36.4842C44.5052 28.9344 51.0076 22.4572 51.0076 14.4672C51.0076 6.47718 44.5052 0 36.4842 0Z" fill="#FFE66D"/>
<path d="M0 16.457L2.03314e-05 7.13354L45.0407 52.0001L35.6811 52.0001L0 16.457Z" fill="white"/>
<path d="M8.35547 30.8423L20.4127 42.853L8.35676 42.8518L8.35547 30.8423Z" fill="#FFE66D"/>
</svg>
