<svg width="13" height="13" fill="none" xmlns="http://www.w3.org/2000/svg"><path d="M6.5 13A6.507 6.507 0 010 6.5C0 2.916 2.916 0 6.5 0S13 2.916 13 6.5 10.084 13 6.5 13zM6.5.813A5.694 5.694 0 00.813 6.5 5.694 5.694 0 006.5 12.188 5.694 5.694 0 0012.188 6.5 5.694 5.694 0 006.5.813z" fill="#fff"/><path d="M6.5 9.75A3.254 3.254 0 013.25 6.5 3.254 3.254 0 016.5 3.25c.881 0 1.705.347 2.322.976l-.58.568A2.418 2.418 0 006.5 4.062 2.44 2.44 0 004.062 6.5 2.44 2.44 0 006.5 8.938c.66 0 1.279-.26 1.741-.732l.58.568A3.22 3.22 0 016.5 9.75z" fill="#fff"/></svg>