<svg width="19" height="19" viewBox="0 0 19 19" fill="none" xmlns="http://www.w3.org/2000/svg">
<path d="M7.58887 17.0186V18.9429L7.12355 18.567C7.05165 18.5089 5.341 17.12 3.60628 15.1284C1.2133 12.3811 0 9.91487 0 7.79862V7.58887C0 3.40435 3.40435 0 7.58887 0C11.7734 0 15.1777 3.40435 15.1777 7.58887V7.79862C15.1777 7.97634 15.1683 8.15681 15.1512 8.33946L13.6671 6.98555C13.3631 3.89967 10.7533 1.48075 7.58887 1.48075C4.2209 1.48075 1.48075 4.2209 1.48075 7.58887V7.79862C1.48075 11.3747 6.0884 15.7039 7.58887 17.0186ZM12.1422 15.955H14.3632V13.7339H12.1422V15.955ZM7.58887 4.44225C9.32388 4.44225 10.7355 5.85386 10.7355 7.58887C10.7355 9.32388 9.32388 10.7355 7.58887 10.7355C5.85386 10.7355 4.44225 9.32388 4.44225 7.58887C4.44225 5.85386 5.85386 4.44225 7.58887 4.44225ZM7.58887 5.923C6.67027 5.923 5.923 6.67027 5.923 7.58887C5.923 8.50732 6.67027 9.25473 7.58887 9.25473C8.50732 9.25473 9.25473 8.50732 9.25473 7.58887C9.25473 6.67027 8.50732 5.923 7.58887 5.923ZM18.0021 14.9488L17.5858 14.5691V16.9462C17.5858 18.0531 16.6852 18.9536 15.5783 18.9536H10.8902C9.78325 18.9536 8.88262 18.0531 8.88262 16.9462V14.5691L8.4663 14.9488L7.46841 13.855L13.2341 8.59488L19 13.855L18.0021 14.9488ZM16.105 13.2182L13.2341 10.5992L10.3634 13.2182V16.9461C10.3634 17.2366 10.5997 17.4729 10.8902 17.4729H15.5783C15.8688 17.4729 16.105 17.2366 16.105 16.9461V13.2182Z" fill="white"/>
</svg>
