<svg width="13" height="13" viewBox="0 0 13 13" fill="none" xmlns="http://www.w3.org/2000/svg">
<path d="M6.5 13C2.91596 13 0 10.084 0 6.5C0 2.91596 2.91596 0 6.5 0C10.084 0 13 2.91596 13 6.5C13 10.084 10.084 13 6.5 13ZM6.5 0.812504C3.36386 0.812504 0.812504 3.36386 0.812504 6.5C0.812504 9.63614 3.36386 12.1875 6.5 12.1875C9.63614 12.1875 12.1875 9.63614 12.1875 6.5C12.1875 3.36386 9.63614 0.812504 6.5 0.812504Z" fill="white"/>
<path d="M6.49983 9.75003C4.70781 9.75003 3.24982 8.29206 3.24982 6.50001C3.24982 4.70797 4.70778 3.25 6.49983 3.25C7.38096 3.25 8.20537 3.59675 8.82189 4.22635L8.24109 4.79445C7.77891 4.32233 7.16081 4.06247 6.49983 4.06247C5.15571 4.06247 4.06232 5.15586 4.06232 6.49999C4.06232 7.84411 5.15571 8.9375 6.49983 8.9375C7.1604 8.9375 7.7785 8.67764 8.24109 8.20552L8.82109 8.77444C8.20496 9.40366 7.38058 9.75 6.49983 9.75003Z" fill="white"/>
</svg>
