<svg width="19" height="19" viewBox="0 0 19 19" fill="none" xmlns="http://www.w3.org/2000/svg">
<path d="M9.5 2.22656C7.35148 2.22656 5.60352 3.97453 5.60352 6.12305C5.60352 7.45687 6.27616 8.68415 7.40284 9.406C8.55334 10.1431 9.96561 10.2214 11.278 9.61764C11.5573 9.48916 11.6795 9.15859 11.551 8.87931C11.4226 8.60006 11.092 8.47779 10.8127 8.60626C9.85306 9.04779 8.82906 8.99758 8.00342 8.46862C7.19777 7.95247 6.7168 7.07561 6.7168 6.12305C6.7168 4.58839 7.96534 3.33984 9.5 3.33984C11.0347 3.33984 12.2832 4.58839 12.2832 6.12305C12.2832 6.42998 12.0335 6.67969 11.7266 6.67969C11.4461 6.67969 11.1841 6.46698 11.17 6.13151C11.17 6.12869 11.1699 6.12587 11.1699 6.12305C11.1699 5.20225 10.4208 4.45312 9.5 4.45312C8.57921 4.45312 7.83008 5.20225 7.83008 6.12305C7.83008 7.04384 8.57921 7.79297 9.5 7.79297C9.92735 7.79297 10.3176 7.63143 10.6132 7.36643C10.9089 7.63147 11.2992 7.79297 11.7266 7.79297C12.6474 7.79297 13.3965 7.04384 13.3965 6.12305C13.3965 3.97453 11.6485 2.22656 9.5 2.22656ZM10.0488 6.21233C10.0058 6.47688 9.77646 6.67969 9.5 6.67969C9.19307 6.67969 8.94336 6.42998 8.94336 6.12305C8.94336 5.81612 9.19307 5.56641 9.5 5.56641C9.78541 5.56641 10.021 5.78238 10.0527 6.0594C10.0444 6.10998 10.0431 6.16146 10.0488 6.21233Z" fill="white"/>
<path d="M17.8496 7.30966C17.8494 7.16571 17.7915 7.02184 17.6866 6.91693L15.623 4.85342V0.556641C15.623 0.249227 15.3738 0 15.0664 0H3.93359C3.62618 0 3.37695 0.249227 3.37695 0.556641V4.85342L1.31345 6.91693C1.31152 6.91886 1.30989 6.92101 1.30799 6.92298C1.20368 7.03045 1.15065 7.17194 1.15043 7.30966C1.15043 7.31003 1.15039 7.31036 1.15039 7.31073V17.3301C1.15039 18.2521 1.90059 19 2.82031 19H16.1797C17.1014 19 17.8496 18.2501 17.8496 17.3301V7.31073C17.8496 7.31036 17.8496 7.31003 17.8496 7.30966ZM15.623 6.42783L16.5058 7.31055L15.623 8.19327V6.42783ZM4.49023 5.08417C4.49023 5.08406 4.49023 5.08391 4.49023 5.0838V1.11328H14.5098V5.0838C14.5098 5.08391 14.5098 5.08406 14.5098 5.08417V9.30655L11.496 12.3203H7.504L4.49023 9.30655V5.08417ZM3.37695 6.42783V8.19327L2.49423 7.31055L3.37695 6.42783ZM2.26367 17.0995V8.65439L6.48624 12.877L2.26367 17.0995ZM3.05091 17.8867L7.504 13.4336H11.496L15.9491 17.8867H3.05091ZM16.7363 17.0995L12.5138 12.877L16.7363 8.65439V17.0995Z" fill="white"/>
</svg>
