<svg width="19" height="19" viewBox="0 0 19 19" fill="none" xmlns="http://www.w3.org/2000/svg">
<path d="M13.4977 0H5.50356C4.7385 0 4.1209 0.620363 4.1209 1.38405V17.6173C4.1209 18.3803 4.7385 19 5.50356 19H13.4977C14.2613 19 14.8803 18.3803 14.8803 17.6173V1.38405C14.8803 0.620363 14.2613 0 13.4977 0ZM7.52805 0.840536H11.4746C11.5743 0.840536 11.6553 0.989396 11.6553 1.17357C11.6553 1.35774 11.5743 1.50729 11.4746 1.50729H7.52805C7.42766 1.50729 7.34804 1.35774 7.34804 1.17357C7.34804 0.989396 7.42766 0.840536 7.52805 0.840536ZM9.50131 17.634C9.01457 17.634 8.61854 17.2379 8.61854 16.7505C8.61854 16.2631 9.01457 15.8684 9.50131 15.8684C9.98666 15.8684 10.3827 16.2631 10.3827 16.7505C10.3827 17.2379 9.98666 17.634 9.50131 17.634ZM13.8445 14.609H5.15738V2.33536H13.8445V14.609Z" fill="white"/>
</svg>
