<svg width="130" height="44" fill="none" xmlns="http://www.w3.org/2000/svg"><path d="M52.747 35.545h9.608v-1.678H54.64V20.974h-1.893v14.57zm17.594 0h6.048v-1.678h-2.091V22.652h2.09v-1.678h-6.047v1.678h2.063v11.215h-2.063v1.678zm14.854-12.893h1.526v11.215h-1.526v1.678h4.917c5.284 0 6.075-2.909 6.075-7.467 0-5.398-1.893-7.104-6.075-7.104h-4.917v1.678zm3.419 0h1.95c2.345 0 3.645 1.147 3.645 5.621 0 4.195-1.102 5.594-3.589 5.594h-2.006V22.652zm14.599 12.893h9.184v-1.678h-7.291v-5.174h6.019v-1.678h-6.019v-4.363h7.291v-1.678h-9.184v14.57zm18.612-7.915v-4.978h3.051c1.696 0 2.487.98 2.487 2.293 0 1.65-1.215 2.685-3.052 2.685h-2.486zm-1.894 7.915h1.894v-6.237h2.741l3.758 6.6 1.639-.979-3.617-5.9c1.78-.532 2.995-2.294 2.995-4.084 0-2.824-1.95-3.97-4.408-3.97h-5.002v14.57z" fill="#fff"/><path d="M7.796 8.1l.596-7.08 35.315 34.948h-7.75L7.797 8.099z" fill="#FFE66D"/><path fill-rule="evenodd" clip-rule="evenodd" d="M31.004.718H7.714v7.23l5.48 5.424v-7.23h17.81c3.615 0 6.545 2.9 6.545 6.477 0 3.577-2.93 6.477-6.545 6.477H18.978l5.48 5.424h6.546c6.64 0 12.025-5.329 12.025-11.901 0-6.573-5.384-11.9-12.025-11.9z" fill="#FFE66D"/><path d="M.794 14.256v-7.67l37.294 36.907h-7.75L.794 14.256z" fill="#fff"/><path d="M7.712 33.758v-7.67l9.984 9.88H7.714l-.002-2.21z" fill="#FFE66D"/></svg>