<svg width="156" height="52" fill="none" xmlns="http://www.w3.org/2000/svg"><path d="M62.744 42.337h11.604v-2.04h-9.317V24.625h-2.287v17.712zm21.249 0h7.304v-2.04H88.77V26.666h2.526v-2.04h-7.304v2.04h2.492v13.633h-2.492v2.04zm17.939-15.672h1.843v13.633h-1.843v2.04h5.938c6.383 0 7.338-3.536 7.338-9.078 0-6.561-2.287-8.635-7.338-8.635h-5.938v2.04zm4.13 0h2.354c2.833 0 4.403 1.393 4.403 6.833 0 5.1-1.331 6.8-4.334 6.8h-2.423V26.665zm17.631 15.672h11.092v-2.04h-8.805v-6.289h7.269v-2.04h-7.269v-5.303h8.805v-2.04h-11.092v17.712zm22.478-9.621v-6.051h3.686c2.047 0 3.003 1.19 3.003 2.787 0 2.006-1.468 3.264-3.686 3.264h-3.003zm-2.287 9.621h2.287v-7.581h3.31l4.539 8.023 1.98-1.19-4.369-7.173c2.151-.646 3.618-2.788 3.618-4.964 0-3.433-2.355-4.827-5.324-4.827h-6.041v17.712z" fill="#fff"/><path d="M8.457 8.973L9.176.366l42.65 42.486h-9.36L8.457 8.972z" fill="#FFE66D"/><path fill-rule="evenodd" clip-rule="evenodd" d="M36.484 0H8.357v8.79l6.618 6.592v-8.79h21.51c4.365 0 7.904 3.526 7.904 7.875 0 4.35-3.539 7.875-7.905 7.875H21.961l6.619 6.592h7.904c8.021 0 14.524-6.477 14.524-14.467S44.505 0 36.484 0z" fill="#FFE66D"/><path d="M0 16.457V7.134L45.04 52h-9.359L0 16.457z" fill="#fff"/><path d="M8.355 30.842l12.058 12.011-12.056-.001-.002-12.01z" fill="#FFE66D"/></svg>